<?xml version="1.0" standalone="no"?>
<!DOCTYPE svg PUBLIC "-//W3C//DTD SVG 20010904//EN"
 "http://www.w3.org/TR/2001/REC-SVG-20010904/DTD/svg10.dtd">
<svg version="1.0" xmlns="http://www.w3.org/2000/svg"
 width="920.000000pt" height="582.000000pt" viewBox="0 0 920.000000 582.000000"
 preserveAspectRatio="xMidYMid meet">

<g transform="translate(0.000000,582.000000) scale(0.100000,-0.100000)"
fill="#000000" stroke="none">
<path d="M1040 5394 c-105 -28 -180 -72 -265 -158 -90 -91 -137 -174 -161
-285 -21 -98 -21 -3674 0 -3772 24 -111 71 -194 161 -285 87 -88 180 -142 283
-163 38 -8 1050 -11 3545 -11 3815 0 3539 -4 3660 56 162 81 284 239 316 409
9 44 11 554 9 1915 l-3 1855 -23 62 c-64 170 -196 301 -368 366 l-59 22 -3520
2 c-3052 2 -3527 0 -3575 -13z m7105 -247 c78 -36 146 -104 182 -181 l28 -61
0 -1840 0 -1840 -28 -60 c-36 -78 -104 -146 -181 -182 l-61 -28 -3490 0 -3490
0 -67 33 c-81 40 -149 111 -177 188 -21 54 -21 63 -21 1889 0 1820 0 1835 20
1889 37 98 133 184 239 212 36 10 789 12 3516 11 l3470 -2 60 -28z"/>
<path d="M1118 4917 c-14 -12 -31 -32 -37 -44 -8 -15 -11 -535 -11 -1808 0
-1941 -4 -1821 54 -1859 23 -15 287 -16 3477 -16 l3451 0 34 34 34 34 0 1807
0 1807 -34 34 -34 34 -3453 0 -3454 0 -27 -23z m3523 -121 c64 -43 74 -77 77
-277 l4 -176 86 -21 c49 -12 133 -44 192 -73 92 -46 116 -64 201 -148 78 -79
103 -112 137 -181 34 -69 42 -97 42 -139 0 -147 -148 -228 -270 -147 -30 20
-48 44 -74 99 -74 155 -218 245 -423 262 -194 17 -362 -67 -432 -215 -36 -75
-37 -203 -3 -267 32 -62 79 -112 146 -154 72 -47 137 -72 286 -110 139 -36
202 -58 300 -110 323 -168 473 -512 363 -832 -73 -211 -250 -379 -475 -454
l-78 -26 0 -176 c0 -98 -5 -194 -11 -216 -14 -51 -74 -110 -124 -124 -95 -25
-193 36 -215 135 -5 21 -10 117 -10 211 l0 173 -27 6 c-74 16 -166 51 -248 93
-124 64 -252 190 -312 308 -67 132 -69 194 -7 262 45 50 81 65 148 59 75 -6
113 -38 158 -130 80 -166 247 -258 468 -258 140 0 239 38 321 122 61 63 92
139 93 228 1 95 -25 153 -104 230 -74 73 -170 119 -341 163 -250 65 -390 136
-514 262 -130 132 -185 260 -193 440 -3 80 1 129 12 180 54 229 238 428 474
511 l67 23 5 183 c6 198 12 221 68 273 54 50 146 55 213 11z"/>
</g>
</svg>
